<svg xmlns="http://www.w3.org/2000/svg" width="560" height="560" preserveAspectRatio="xMidYMid meet" version="1.0" viewBox="0 0 420 420"><metadata>Created by potrace 1.14, written by Peter Selinger 2001-2017</metadata><g fill="#000" stroke="none"><path d="M1050 3500 l0 -350 -350 0 -350 0 0 -355 0 -355 350 0 350 0 0 -345 0 -345 -350 0 -350 0 0 -705 0 -705 1755 0 1755 0 0 705 0 705 -350 0 -350 0 0 345 0 345 350 0 350 0 0 355 0 355 -350 0 -350 0 0 350 0 350 -355 0 -355 0 0 -350 0 -350 -345 0 -345 0 0 350 0 350 -355 0 -355 0 0 -350z m700 -2105 l0 -345 -345 0 -345 0 0 345 0 345 345 0 345 0 0 -345z m1400 0 l0 -345 -345 0 -345 0 0 345 0 345 345 0 345 0 0 -345z" transform="translate(0.000000,420.000000) scale(0.100000,-0.100000)"/></g></svg>